# xmcd
#
# Track frame offsets: 
#        150
#        16151
#        39912
#
# Disc length: 864 seconds
#
# Revision: 0
# Processed by: cddbd v1.5.2PL0 Copyright (c) Steve Scherf et al.
# Submitted via: ExactAudioCopy v0.95b4
#
DISCID=14035e03
DTITLE=Hypnotea feat. Tom Taylor - Those DJ´s
DYEAR=2002
DGENRE=
TTITLE0=hypnotize mix
TTITLE1=club mix
TTITLE2=dj nomad mix
EXTD=
EXTT0=
EXTT1=
EXTT2=
PLAYORDER=
